# xmcd CD database file
#
# Track frame offsets:
#	150
#	16981
#	30661
#	44682
#	57174
#	86636
#	98663
#	112249
#	138096
#	160930
#	179142
#	202224
#
# Disc length: 3169 seconds
#
# Revision: 0
# Processed by: cddbd v1.5.2PL0 Copyright (c) Steve Scherf et al.
# Submitted via: CDex 1.70beta2
#
DISCID=aa0c5f0c
DTITLE=Various Artist - 鎌倉ジャズ
DYEAR=2014
DGENRE=Jazz
TTITLE0=Let’s Get Lost
TTITLE1=That Old Feeling
TTITLE2=But Not For Me
TTITLE3=Stella By Starlight
TTITLE4=Stardust
TTITLE5=These Foolish Things
TTITLE6=Over The Rainbow
TTITLE7=A Ballad
TTITLE8=Easy Living
TTITLE9=I Get A Kick Out Of You
TTITLE10=You Are The Sunshine Of My Life
TTITLE11=Perdido
EXTD=YEAR: 2014
EXTT0=
EXTT1=
EXTT2=
EXTT3=
EXTT4=
EXTT5=
EXTT6=
EXTT7=
EXTT8=
EXTT9=
EXTT10=
EXTT11=
PLAYORDER=
